<?xml version="1.0" encoding="UTF-8"?>
<svg id="Layer_1" xmlns="http://www.w3.org/2000/svg" version="1.1" viewBox="0 0 48 48">
  <!-- Generator: Adobe Illustrator 29.0.1, SVG Export Plug-In . SVG Version: 2.1.0 Build 192)  -->
  <defs>
    <style>
      .st0 {
        fill: #fff;
      }

      .st1 {
        fill: #0288d1;
      }
    </style>
  </defs>
  <path class="st1" d="M47.6,41.1c0,3.6-2.9,6.6-6.6,6.6H6.9c-3.6,0-6.6-2.9-6.6-6.6V6.9C.4,3.3,3.3.4,6.9.4h34.1c3.6,0,6.6,2.9,6.6,6.6v34.1Z"/>
  <path class="st0" d="M8.3,17.4h6.6v22.3h-6.6v-22.3ZM11.5,14.8h0c-2,0-3.2-1.5-3.2-3.3s1.3-3.3,3.3-3.3,3.2,1.4,3.3,3.3c0,1.8-1.3,3.3-3.3,3.3ZM39.7,39.7h-6.6v-11.9c0-2.9-1.6-4.9-4.2-4.9s-3,1.3-3.6,2.6c-.2.5-.1,1.7-.1,2.4v11.8h-6.6v-22.3h6.6v3.4c.9-1.5,2.4-3.4,6.2-3.4s8.2,3,8.2,9.5v12.8h0Z"/>
</svg>